<?xml version="1.0" encoding="utf-8"?>
<!-- Generator: Adobe Illustrator 17.0.0, SVG Export Plug-In . SVG Version: 6.00 Build 0)  -->
<!DOCTYPE svg PUBLIC "-//W3C//DTD SVG 1.1//EN" "http://www.w3.org/Graphics/SVG/1.1/DTD/svg11.dtd">
<svg version="1.1" id="Calque_1" xmlns="http://www.w3.org/2000/svg" xmlns:xlink="http://www.w3.org/1999/xlink" x="0px" y="0px"
	 width="181.14px" height="181.14px" viewBox="107.14 118.323 181.14 181.14" enable-background="new 107.14 118.323 181.14 181.14"
	 xml:space="preserve">
<g>
	<rect x="107.14" y="118.323" fill="#F7DF1E" width="181.14" height="181.14"/>
	<path d="M228.82,259.839c3.649,5.957,8.396,10.336,16.791,10.336c7.053,0,11.558-3.525,11.558-8.396
		c0-5.837-4.629-7.904-12.392-11.3l-4.255-1.826c-12.283-5.233-20.443-11.788-20.443-25.647c0-12.766,9.727-22.484,24.928-22.484
		c10.822,0,18.603,3.767,24.21,13.629l-13.255,8.511c-2.918-5.233-6.067-7.294-10.955-7.294c-4.986,0-8.146,3.163-8.146,7.294
		c0,5.106,3.163,7.174,10.466,10.336l4.255,1.823c14.462,6.202,22.628,12.525,22.628,26.74c0,15.325-12.039,23.721-28.206,23.721
		c-15.808,0-26.021-7.533-31.018-17.407L228.82,259.839z M168.69,261.314c2.674,4.744,5.106,8.755,10.955,8.755
		c5.592,0,9.12-2.188,9.12-10.696v-57.879h17.021v58.109c0,17.625-10.334,25.647-25.417,25.647
		c-13.629,0-21.521-7.053-25.535-15.548L168.69,261.314z"/>
</g>
</svg>
